<?xml version="1.0" encoding="UTF-8" standalone="no"?>
<!-- Created with Inkscape (http://www.inkscape.org/) -->

<svg
   width="512"
   height="512"
   viewBox="0 0 512 512"
   version="1.1"
   id="svg1"
   xml:space="preserve"
   inkscape:version="1.4.2 (f4327f4, 2025-05-13)"
   sodipodi:docname="SRPNlogo-time.svg"
   xmlns:inkscape="http://www.inkscape.org/namespaces/inkscape"
   xmlns:sodipodi="http://sodipodi.sourceforge.net/DTD/sodipodi-0.dtd"
   xmlns="http://www.w3.org/2000/svg"
   xmlns:svg="http://www.w3.org/2000/svg">
  <sodipodi:namedview
   id="namedview1"
   pagecolor="#ffffff"
   bordercolor="#000000"
   borderopacity="0.25"
   inkscape:showpageshadow="2"
   inkscape:pageopacity="0.0"
   inkscape:pagecheckerboard="0"
   inkscape:deskcolor="#d1d1d1"
   inkscape:document-units="px"
   inkscape:zoom="2"
   inkscape:cx="175.75"
   inkscape:cy="215.75"
   inkscape:window-width="2160"
   inkscape:window-height="1346"
   inkscape:window-x="-11"
   inkscape:window-y="-11"
   inkscape:window-maximized="1"
   inkscape:current-layer="layer2" />
  <defs
   id="defs1" />
  <g
   inkscape:groupmode="layer"
   id="layer2"
   inkscape:label="图层 2">
    
    
    
    
    <path
   id="text5"
   style="font-size:45.5997px;font-family:Arial;-inkscape-font-specification:'Arial, Normal';fill:#00a900;stroke:#00a900;stroke-width:22.7999;stroke-linecap:round;stroke-linejoin:round;stroke-opacity:0"
   inkscape:label="2019.03.04"
   transform="scale(0.98089152,1.0194807)"
   d="m 188.77221,466.35986 v 3.85193 h -21.57525 c -0.0297,-0.96483 0.12619,-1.89256 0.46757,-2.78318 0.54922,-1.46953 1.425,-2.91678 2.62733,-4.34177 1.21718,-1.42499 2.96873,-3.07264 5.25465,-4.94294 3.54763,-2.90935 5.94488,-5.21012 7.19175,-6.9023 1.24687,-1.70702 1.8703,-3.31756 1.8703,-4.83161 0,-1.58827 -0.57148,-2.92419 -1.71444,-4.00778 -1.12812,-1.09843 -2.60506,-1.64765 -4.43083,-1.64765 -1.92967,0 -3.47341,0.5789 -4.63122,1.73671 -1.15781,1.15781 -1.74413,2.76092 -1.75897,4.80934 l -4.11912,-0.42304 c 0.28203,-3.07263 1.34336,-5.41051 3.18397,-7.01363 1.84061,-1.61795 4.31208,-2.42693 7.4144,-2.42693 3.13201,0 5.6109,0.86835 7.43667,2.60506 1.82577,1.73671 2.73866,3.88904 2.73866,6.45699 0,1.30624 -0.26719,2.59021 -0.80156,3.85192 -0.53437,1.26171 -1.42499,2.59022 -2.67186,3.98553 -1.23202,1.3953 -3.28787,3.31013 -6.16754,5.74449 -2.40467,2.01873 -3.94841,3.39177 -4.63122,4.11911 -0.68281,0.7125 -1.24686,1.43242 -1.69217,2.15975 z m 7.37378,-12.24601 c 0,-3.85935 0.39336,-6.96167 1.18007,-9.30697 0.80155,-2.36014 1.98162,-4.17849 3.54021,-5.45504 1.57343,-1.27655 3.54763,-1.91483 5.92262,-1.91483 1.75155,0 3.28786,0.35625 4.60895,1.06874 1.32109,0.69765 2.4121,1.71444 3.27303,3.05037 0.86093,1.32109 1.53631,2.93904 2.02615,4.85387 0.48985,1.89999 0.73477,4.46795 0.73477,7.70386 0,3.82966 -0.39336,6.92456 -1.18007,9.28471 -0.78672,2.34529 -1.96679,4.16364 -3.54022,5.45504 -1.55858,1.27655 -3.53278,1.91483 -5.92261,1.91483 -3.14686,0 -5.61833,-1.12812 -7.41441,-3.38435 -2.15233,-2.71639 -3.22849,-7.1398 -3.22849,-13.27023 z m 4.11911,0 c 0,5.35856 0.62343,8.92846 1.8703,10.7097 1.26171,1.76639 2.81288,2.64959 4.65349,2.64959 1.84061,0 3.38435,-0.89062 4.63122,-2.67186 1.26171,-1.78124 1.89256,-5.34372 1.89256,-10.68743 0,-5.3734 -0.63085,-8.9433 -1.89256,-10.70969 -1.24687,-1.7664 -2.80545,-2.6496 -4.67575,-2.6496 -1.84061,0 -3.31014,0.77929 -4.40857,2.33788 -1.38046,1.98905 -2.07069,5.66285 -2.07069,11.02141 z m 35.65359,16.09794 h -4.00779 v -25.5385 c -0.96484,0.92031 -2.23397,1.84061 -3.8074,2.76092 -1.55858,0.92031 -2.9613,1.61054 -4.20817,2.07069 v -3.8742 c 2.24139,-1.0539 4.20075,-2.33045 5.87808,-3.82966 1.67733,-1.49921 2.86483,-2.95388 3.56248,-4.36403 h 2.5828 z m 10.86555,-7.548 3.85193,-0.35624 c 0.32656,1.81093 0.94999,3.12459 1.8703,3.94099 0.92031,0.8164 2.10038,1.2246 3.54021,1.2246 1.23202,0 2.30818,-0.28203 3.22849,-0.84609 0.93515,-0.56406 1.6996,-1.31366 2.29335,-2.24881 0.59375,-0.94999 1.09101,-2.22655 1.49178,-3.82967 0.40078,-1.60311 0.60117,-3.23591 0.60117,-4.8984 0,-0.17813 -0.007,-0.44531 -0.0223,-0.80156 -0.80156,1.27655 -1.89999,2.31561 -3.2953,3.11717 -1.38045,0.78671 -2.87966,1.18007 -4.49762,1.18007 -2.70155,0 -4.98747,-0.97968 -6.85777,-2.93904 -1.8703,-1.95937 -2.80545,-4.54216 -2.80545,-7.74839 0,-3.31013 0.97226,-5.97457 2.91678,-7.99331 1.95936,-2.01873 4.40856,-3.0281 7.34761,-3.0281 2.12264,0 4.05974,0.57148 5.81129,1.71444 1.76639,1.14296 3.10232,2.77576 4.00778,4.8984 0.92031,2.1078 1.38046,5.16559 1.38046,9.17338 0,4.17107 -0.45273,7.49605 -1.35819,9.97494 -0.90547,2.46405 -2.25624,4.34177 -4.05232,5.63316 -1.78124,1.2914 -3.87419,1.9371 -6.27886,1.9371 -2.55311,0 -4.63865,-0.70507 -6.2566,-2.11522 -1.61796,-1.42499 -2.59022,-3.42147 -2.91678,-5.98942 z m 16.40966,-14.40576 c 0,-2.30077 -0.61601,-4.12654 -1.84804,-5.47731 -1.21718,-1.35077 -2.6867,-2.02616 -4.40856,-2.02616 -1.78124,0 -3.3324,0.72734 -4.65349,2.18202 -1.32109,1.45468 -1.98163,3.33982 -1.98163,5.65543 0,2.07811 0.62343,3.77029 1.8703,5.07653 1.26171,1.2914 2.81288,1.9371 4.65349,1.9371 1.85545,0 3.37693,-0.6457 4.56442,-1.9371 1.20234,-1.30624 1.80351,-3.10974 1.80351,-5.41051 z m 24.28834,13.33702 4.00778,-0.53437 c 0.46015,2.27108 1.23945,3.9113 2.33788,4.92067 1.11327,0.99453 2.46405,1.49179 4.05232,1.49179 1.88514,0 3.47341,-0.65312 4.76481,-1.95936 1.30624,-1.30625 1.95936,-2.92421 1.95936,-4.85388 0,-1.84061 -0.60117,-3.35467 -1.8035,-4.54216 -1.20234,-1.20233 -2.73124,-1.8035 -4.58669,-1.8035 -0.75703,0 -1.6996,0.14844 -2.82772,0.44531 l 0.44531,-3.51795 c 0.26719,0.0297 0.48242,0.0445 0.6457,0.0445 1.70702,0 3.24334,-0.44531 4.60895,-1.33592 1.36562,-0.89062 2.04843,-2.26366 2.04843,-4.11912 0,-1.46952 -0.49726,-2.6867 -1.49179,-3.65154 -0.99453,-0.96483 -2.2785,-1.44725 -3.85193,-1.44725 -1.55858,0 -2.8574,0.48984 -3.89646,1.46952 -1.03905,0.97968 -1.70702,2.4492 -2.00389,4.40856 l -4.00778,-0.71249 c 0.48984,-2.6867 1.60311,-4.76481 3.33982,-6.23434 1.73671,-1.48436 3.89646,-2.22654 6.47925,-2.22654 1.78124,0 3.42146,0.38593 4.92067,1.1578 1.49921,0.75703 2.64218,1.79608 3.42889,3.11717 0.80155,1.32109 1.20233,2.72381 1.20233,4.20817 0,1.41015 -0.37851,2.69412 -1.13554,3.85193 -0.75703,1.15781 -1.87772,2.07811 -3.36208,2.76092 1.92967,0.44531 3.42888,1.37304 4.49762,2.78319 1.06875,1.3953 1.60312,3.14685 1.60312,5.25465 0,2.84998 -1.03906,5.2695 -3.11717,7.25855 -2.07811,1.9742 -4.70544,2.9613 -7.88198,2.9613 -2.86483,0 -5.24723,-0.85351 -7.14722,-2.56053 -1.88514,-1.70702 -2.9613,-3.91872 -3.22849,-6.63511 z m 55.29825,8.61674 v -7.81518 h -14.16085 v -3.67381 l 14.89561,-21.1522 h 3.27302 v 21.1522 h 4.40857 v 3.67381 h -4.40857 v 7.81518 z m 0,-11.48899 v -14.71748 l -10.21986,14.71748 z m -62.51887,9.469 a 2.5487018,2.4522289 0 0 1 -2.5487,2.45222 2.5487018,2.4522289 0 0 1 -2.5487,-2.45222 2.5487018,2.4522289 0 0 1 2.5487,-2.45223 2.5487018,2.4522289 0 0 1 2.5487,2.45223 z m 40.87481,-0.36346 a 2.5487018,2.4522289 0 0 1 -2.5487,2.45223 2.5487018,2.4522289 0 0 1 -2.5487,-2.45223 2.5487018,2.4522289 0 0 1 2.5487,-2.45223 2.5487018,2.4522289 0 0 1 2.5487,2.45223 z" />
    <path
   style="fill:#00a900;fill-opacity:0;fill-rule:nonzero;stroke:#00a900;stroke-width:6;stroke-linecap:round;stroke-linejoin:round;stroke-dasharray:none;stroke-opacity:1"
   d="m 182.49565,65.625919 c 0,0 18.62877,-0.443487 29.00593,-2.779736 13.74306,-3.094027 -22.7935,20.146449 -25.86362,28.885073 -0.52623,1.497843 2.282,2.862257 3.86745,2.779735 11.64098,-0.605907 21.39513,-7.046413 32.51082,-7.614057 4.09711,-0.209227 8.65496,-0.482029 12.20666,1.571155 4.679,2.704859 4.88863,10.688349 9.81883,12.902481 3.75044,1.68431 8.35212,0.21627 12.29819,-0.93753 2.37007,-0.692988 5.25894,-1.385647 6.52634,-3.504888 1.59215,-2.662258 1.55699,-6.623098 0,-9.306069 -1.63024,-2.809197 -5.34065,-3.9296 -8.46007,-4.834322 -4.26046,-1.23566 -15.18569,3.408358 -13.29438,-0.60429 1.38871,-2.946325 6.90238,-26.343723 8.58092,-30.33537 0.80874,-1.923212 0.5106,4.822803 -1.08772,6.163761 -0.30863,0.258932 -1.38546,0.361951 -1.20858,0 1.07334,-2.196369 33.30428,-2.436614 34.80712,-4.95518"
   id="path7"
   inkscape:label="z5"
   sodipodi:nodetypes="csssaaaaaaassasc" />
    
    
    
  </g>
</svg>
