<?xml version="1.0" encoding="UTF-8" standalone="no"?>
<!-- Created with Inkscape (http://www.inkscape.org/) -->

<svg
   width="512"
   height="512"
   viewBox="0 0 512 512"
   version="1.1"
   id="svg1"
   xml:space="preserve"
   inkscape:version="1.4.2 (f4327f4, 2025-05-13)"
   sodipodi:docname="SRPNlogo-py.svg"
   xmlns:inkscape="http://www.inkscape.org/namespaces/inkscape"
   xmlns:sodipodi="http://sodipodi.sourceforge.net/DTD/sodipodi-0.dtd"
   xmlns="http://www.w3.org/2000/svg"
   xmlns:svg="http://www.w3.org/2000/svg">
  <sodipodi:namedview
   id="namedview1"
   pagecolor="#ffffff"
   bordercolor="#000000"
   borderopacity="0.25"
   inkscape:showpageshadow="2"
   inkscape:pageopacity="0.0"
   inkscape:pagecheckerboard="0"
   inkscape:deskcolor="#d1d1d1"
   inkscape:document-units="px"
   inkscape:zoom="2"
   inkscape:cx="175.75"
   inkscape:cy="175.75"
   inkscape:window-width="2160"
   inkscape:window-height="1346"
   inkscape:window-x="-11"
   inkscape:window-y="-11"
   inkscape:window-maximized="1"
   inkscape:current-layer="layer2" />
  <defs
   id="defs1" />
  <g
   inkscape:groupmode="layer"
   id="layer2"
   inkscape:label="图层 2">
    
    <path
   style="fill:#00a900;fill-opacity:1;fill-rule:nonzero;stroke:#000000;stroke-width:4;stroke-linecap:round;stroke-linejoin:round;stroke-dasharray:none;stroke-opacity:0"
   d="m 76.865716,364.26615 c -0.494404,-4.99299 3.384026,-4.35089 3.384026,-4.35089 0,0 11.215128,1.45127 17.886991,-0.48343 6.671867,-1.9347 1.621842,-24.85645 10.756367,-30.69795 1.77299,-1.13382 5.49449,-1.34629 6.28462,0.60429 6.93759,17.12672 7.51259,20.70044 11.11894,30.09365 1.72746,4.49939 21.35978,-1.11046 24.7759,1.69202 3.41612,2.80248 0.26082,4.0486 -1.08772,5.31776 -2.72596,2.5655 -19.94158,14.3821 -19.94158,14.3821 l 7.61405,26.58877 c 0,0 0.49386,4.35671 -4.5926,4.35089 -5.08646,-0.006 -14.70924,-14.35109 -18.24957,-15.46983 -3.54033,-1.11874 -21.875303,13.89867 -21.875303,13.89867 0,0 -2.469757,2.25397 -4.471748,-2.90059 -2.001991,-5.15456 7.009767,-26.95134 7.009767,-26.95134 0,0 -18.117736,-11.08113 -18.61214,-16.07412 z"
   id="path4"
   inkscape:label="star"
   sodipodi:nodetypes="zczssszccczzczcz" />
    <path
   style="fill:#00a900;fill-opacity:0;fill-rule:nonzero;stroke:#00a900;stroke-width:6;stroke-linecap:round;stroke-linejoin:round;stroke-dasharray:none;stroke-opacity:1"
   d="m 134.51332,408.15478 c 4.35241,7.09079 13.47089,15.37759 21.8947,9.15795 12.84293,-22.71586 14.05481,-49.9403 25.90453,-73.14252 3.37099,-7.35111 10.19749,-16.69811 19.46983,-14.15882 8.07472,4.36455 6.50569,15.24028 7.11015,23.00138 0.32791,10.72716 -0.9634,23.68231 7.58166,31.72059 10.64054,8.53905 26.97549,7.08039 36.36321,-2.64567 7.24529,-6.79731 10.6058,-20.32373 2.97992,-27.9358 -10.04093,-7.58231 -23.54161,-2.9912 -32.54657,3.94816 -10.68741,8.26814 -21.02804,17.23292 -30.0645,27.29089 -4.20379,7.11369 -10.63554,15.84483 -7.2941,24.42197 10.42721,14.44851 30.79298,19.98393 47.26963,13.35838 20.02293,-7.75872 38.23551,-19.73289 54.09273,-34.15966 10.55588,-9.14905 20.67479,-20.80989 22.3223,-35.1934 1.74752,-9.87632 -7.28328,-17.96589 -16.79594,-14.91415 -9.51339,1.50426 -13.3921,11.58131 -17.69628,18.97137 -5.65857,7.54557 0.265,16.96869 9.69556,12.69097 11.33907,-3.66553 17.79641,-14.58147 27.22998,-21.04297 5.78507,2.68617 -2.50826,14.32082 -3.34908,19.86308 -5.09701,14.28057 -12.39444,28.91255 -9.51738,44.51277 0.006,10.3666 9.96756,16.93954 19.73873,15.53151 16.24801,-0.18717 26.38468,-14.84278 36.00304,-25.92297 8.0158,-10.31666 13.37786,-23.63736 12.35833,-36.82042 -1.06835,-8.84271 -7.89881,-18.4337 -17.83096,-17.04388 -11.57868,-0.27986 -20.36862,13.67463 -14.77324,23.81466 8.26142,4.46775 17.93948,-2.30729 25.42347,-6.21485 4.3621,-6.71815 16.15418,-1.92725 8.95812,4.39061 -5.72904,0.27683 -2.07194,13.36726 -6.07996,18.09467 -4.82693,12.28395 -13.82699,22.95813 -24.61047,30.43099 -9.22934,7.09542 -18.61524,-1.11796 -20.78307,-10.46657 -1.02703,-2.23067 -1.04826,-4.8194 -0.51275,-7.1786"
   id="path5"
   inkscape:label="xqg" />
    
    
    
    
    
    
  </g>
</svg>
