<?xml version="1.0" encoding="UTF-8" standalone="no"?>
<!-- Created with Inkscape (http://www.inkscape.org/) -->

<svg
   width="512"
   height="512"
   viewBox="0 0 512 512"
   version="1.1"
   id="svg1"
   xml:space="preserve"
   inkscape:version="1.4.2 (f4327f4, 2025-05-13)"
   sodipodi:docname="SRPNlogo-main.svg"
   xmlns:inkscape="http://www.inkscape.org/namespaces/inkscape"
   xmlns:sodipodi="http://sodipodi.sourceforge.net/DTD/sodipodi-0.dtd"
   xmlns="http://www.w3.org/2000/svg"
   xmlns:svg="http://www.w3.org/2000/svg">
  <sodipodi:namedview
   id="namedview1"
   pagecolor="#ffffff"
   bordercolor="#000000"
   borderopacity="0.25"
   inkscape:showpageshadow="2"
   inkscape:pageopacity="0.0"
   inkscape:pagecheckerboard="0"
   inkscape:deskcolor="#d1d1d1"
   inkscape:document-units="px"
   inkscape:zoom="2"
   inkscape:cx="175.75"
   inkscape:cy="295.75"
   inkscape:window-width="2160"
   inkscape:window-height="1346"
   inkscape:window-x="-11"
   inkscape:window-y="-11"
   inkscape:window-maximized="1"
   inkscape:current-layer="layer2" />
  <defs
   id="defs1" />
  <g
   inkscape:groupmode="layer"
   id="layer2"
   inkscape:label="图层 2">
    
    
    
    <ellipse
   style="display:inline;fill:#00a900;fill-opacity:0;fill-rule:nonzero;stroke:#b0b0b0;stroke-width:4.94813;stroke-linecap:round;stroke-linejoin:round;stroke-dasharray:none;stroke-opacity:1"
   id="path6"
   ry="50.595158"
   rx="232.50244"
   cy="294.77457"
   cx="220.10571"
   transform="matrix(0.9758854,-0.2182835,0.16511796,0.98627383,0,0)"
   inkscape:label="orbit" />
    
    
    <path
   d="m 163.8244,156.86986 v -3.08365 m 29.97749,20.50627 c -1.46841,1.24815 -2.88542,2.12919 -4.25103,2.64313 -1.35093,0.51394 -2.80465,0.77091 -4.36116,0.77091 -2.56971,0 -4.54472,-0.62407 -5.92502,-1.87221 -1.3803,-1.26283 -2.07045,-2.87074 -2.07045,-4.82371 0,-1.14536 0.25697,-2.18793 0.77091,-3.12771 0.52863,-0.95446 1.21144,-1.71803 2.04843,-2.29071 0.85167,-0.57268 1.80614,-1.00586 2.86339,-1.29954 0.77825,-0.20557 1.95298,-0.40381 3.52417,-0.5947 3.20112,-0.38179 5.55791,-0.83699 7.07037,-1.36562 0.0147,-0.54331 0.022,-0.88838 0.022,-1.03522 0,-1.61525 -0.37444,-2.75326 -1.12333,-3.41404 -1.0132,-0.89573 -2.51832,-1.3436 -4.51535,-1.3436 -1.86487,0 -3.24517,0.33039 -4.1409,0.99118 -0.88105,0.6461 -1.53449,1.7988 -1.96032,3.45809 l -3.87659,-0.52862 c 0.35241,-1.6593 0.93243,-2.99555 1.74006,-4.00875 0.80762,-1.02788 1.975,-1.81348 3.50214,-2.35679 1.52715,-0.55799 3.29658,-0.83699 5.30829,-0.83699 1.99703,0 3.61961,0.23494 4.86776,0.70483 1.24815,0.46989 2.1659,1.0646 2.75326,1.78412 0.58736,0.70483 0.99851,1.60056 1.23346,2.68718 0.13216,0.67547 0.19824,1.89424 0.19824,3.65633 v 5.28625 c 0,3.6857 0.0808,6.02047 0.24228,7.0043 0.17621,0.96915 0.51394,1.90158 1.0132,2.79731 h -4.1409 c -0.41115,-0.82231 -0.67547,-1.78411 -0.79294,-2.88542 z M 193.4715,165.438 c -1.43904,0.58736 -3.5976,1.08662 -6.47567,1.49777 -1.62993,0.23495 -2.78262,0.49926 -3.45809,0.79294 -0.67547,0.29368 -1.19675,0.72686 -1.56385,1.29954 -0.3671,0.55799 -0.55065,1.18207 -0.55065,1.87222 0,1.05725 0.39647,1.93829 1.1894,2.64312 0.80763,0.70484 1.98235,1.05726 3.52418,1.05726 1.52714,0 2.88541,-0.33039 4.07482,-0.99118 1.18941,-0.67547 2.06311,-1.59322 2.6211,-2.75326 0.42584,-0.89573 0.63876,-2.21729 0.63876,-3.96469 z m 10.10997,11.7399 v -23.3917 h 3.56822 v 3.54619 c 0.91041,-1.65929 1.74741,-2.75325 2.51098,-3.28188 0.77825,-0.52863 1.62993,-0.79294 2.55502,-0.79294 1.33625,0 2.69452,0.42584 4.07482,1.27751 l -1.36561,3.67836 c -0.96915,-0.57268 -1.93829,-0.85902 -2.90744,-0.85902 -0.86636,0 -1.64462,0.26431 -2.33477,0.79294 -0.69015,0.51394 -1.18206,1.23346 -1.47575,2.15855 -0.44052,1.40967 -0.66078,2.9515 -0.66078,4.62548 v 12.2465 z m 24.23781,6.28461 v -32.29022 h 12.18042 c 2.14387,0 3.78115,0.10279 4.91182,0.30836 1.58587,0.26431 2.91478,0.77091 3.98672,1.5198 1.07193,0.73421 1.93095,1.76943 2.57705,3.10568 0.66078,1.33625 0.99117,2.80465 0.99117,4.40521 0,2.74592 -0.8737,5.07334 -2.6211,6.98227 -1.7474,1.89424 -4.90447,2.84136 -9.47121,2.84136 h -8.28181 v 13.12754 z m 4.27306,-16.93805 h 8.34789 c 2.7606,0 4.72092,-0.51394 5.88096,-1.54182 1.16004,-1.02789 1.74006,-2.47427 1.74006,-4.33914 0,-1.35093 -0.34508,-2.50363 -1.03523,-3.45809 -0.67547,-0.96915 -1.57119,-1.6079 -2.68718,-1.91627 -0.71952,-0.19089 -2.04843,-0.28634 -3.98672,-0.28634 h -8.25978 z m 36.22114,14.05264 c -1.46841,1.24814 -2.88542,2.12918 -4.25103,2.64313 -1.35093,0.51394 -2.80466,0.77091 -4.36117,0.77091 -2.56971,0 -4.54471,-0.62407 -5.92501,-1.87222 -1.3803,-1.26283 -2.07045,-2.87073 -2.07045,-4.82371 0,-1.14535 0.25697,-2.18792 0.77091,-3.1277 0.52863,-0.95446 1.21144,-1.71803 2.04843,-2.29071 0.85167,-0.57268 1.80614,-1.00586 2.86339,-1.29954 0.77825,-0.20557 1.95298,-0.40381 3.52417,-0.5947 3.20112,-0.38179 5.55791,-0.83699 7.07037,-1.36562 0.0147,-0.54331 0.022,-0.88838 0.022,-1.03523 0,-1.61524 -0.37444,-2.75325 -1.12333,-3.41404 -1.01319,-0.89573 -2.51831,-1.34359 -4.51534,-1.34359 -1.86487,0 -3.24517,0.33039 -4.1409,0.99118 -0.88105,0.64609 -1.53449,1.79879 -1.96032,3.45809 l -3.87659,-0.52863 c 0.35241,-1.65929 0.93243,-2.99554 1.74006,-4.00874 0.80762,-1.02789 1.975,-1.81348 3.50214,-2.35679 1.52715,-0.55799 3.29658,-0.83699 5.30829,-0.83699 1.99703,0 3.61961,0.23494 4.86776,0.70483 1.24815,0.46989 2.1659,1.0646 2.75326,1.78411 0.58736,0.70483 0.99851,1.60056 1.23346,2.68718 0.13215,0.67547 0.19823,1.89424 0.19823,3.65633 v 5.28626 c 0,3.6857 0.0808,6.02046 0.24229,7.00429 0.17621,0.96915 0.51394,1.90158 1.0132,2.79731 h -4.1409 c -0.41115,-0.82231 -0.67547,-1.78411 -0.79294,-2.88541 z m -0.33039,-8.85448 c -1.43904,0.58736 -3.5976,1.08662 -6.47567,1.49777 -1.62993,0.23495 -2.78262,0.49926 -3.45809,0.79294 -0.67547,0.29368 -1.19675,0.72686 -1.56385,1.29954 -0.3671,0.55799 -0.55065,1.18206 -0.55065,1.87221 0,1.05725 0.39647,1.9383 1.1894,2.64313 0.80763,0.70483 1.98235,1.05725 3.52418,1.05725 1.52714,0 2.88541,-0.33039 4.07482,-0.99117 1.18941,-0.67547 2.06311,-1.59322 2.6211,-2.75326 0.42584,-0.89573 0.63876,-2.21729 0.63876,-3.96469 z m 32.73075,-15.99093 v -4.5594 h 3.96469 v 4.5594 z m 9.91173,27.73082 v -32.29022 h 3.9647 v 32.29022 z m 10.132,-27.73082 v -4.5594 h 3.96469 v 4.5594 z m 0,27.73082 v -23.39169 h 3.96469 v 23.39169 z m 8.52409,-11.69584 c 0,-4.33179 1.20409,-7.54026 3.61228,-9.6254 2.01171,-1.73271 4.46395,-2.59907 7.35671,-2.59907 3.21581,0 5.84425,1.05725 7.88533,3.17175 2.04109,2.09982 3.06163,5.00726 3.06163,8.72233 0,3.01023 -0.45521,5.3817 -1.36562,7.11442 -0.89573,1.71803 -2.20995,3.05428 -3.94267,4.00875 -1.71803,0.95446 -3.59759,1.43169 -5.63867,1.43169 -3.27455,0 -5.92502,-1.04991 -7.95141,-3.14973 -2.01172,-2.09982 -3.01758,-5.12473 -3.01758,-9.07474 z m 4.07483,0 c 0,2.99555 0.65344,5.24221 1.96032,6.73998 1.30688,1.48309 2.95149,2.22463 4.93384,2.22463 1.96766,0 3.60493,-0.74889 4.91181,-2.24666 1.30688,-1.49777 1.96032,-3.78114 1.96032,-6.85011 0,-2.89275 -0.66078,-5.08068 -1.98234,-6.56377 -1.30688,-1.49777 -2.93681,-2.24666 -4.88979,-2.24666 -1.98235,0 -3.62696,0.74155 -4.93384,2.22464 -1.30688,1.48309 -1.96032,3.7224 -1.96032,6.71795 z m 22.48861,11.69584 v -23.39169 h 3.56823 v 3.32594 c 1.71803,-2.56971 4.19964,-3.85456 7.44481,-3.85456 1.40967,0 2.70186,0.25697 3.87659,0.77091 1.18941,0.49926 2.07779,1.16004 2.66515,1.98235 0.58737,0.82231 0.99852,1.79879 1.23346,2.92946 0.14684,0.73421 0.22026,2.01906 0.22026,3.85457 v 14.38302 h -3.96469 v -14.22884 c 0,-1.61525 -0.15418,-2.81934 -0.46255,-3.61228 -0.30836,-0.80762 -0.85901,-1.44637 -1.65195,-1.91626 -0.77825,-0.48458 -1.69601,-0.72687 -2.75326,-0.72687 -1.68867,0 -3.14973,0.53597 -4.38319,1.60791 -1.21877,1.07193 -1.82816,3.10567 -1.82816,6.10122 v 12.77512 z m -192.0207,-29.6763 c 0,0 -1.13439,0.0685 -1.63214,-0.15728 -1.32033,-0.5989 -2.16672,-1.93189 -3.16572,-2.98258 -0.66961,-0.70425 -1.2121,-1.52337 -1.88967,-2.21997 -1.01511,-1.0436 -1.94023,-2.2786 -3.24622,-2.92199 -1.92219,-0.94696 -3.92799,-1.16738 -6.32149,-1.16738 -2.17324,0 -4.14824,0.3671 -5.92501,1.1013 -1.77677,0.73421 -3.12771,1.81349 -4.0528,3.23784 -0.92509,1.40967 -1.38764,2.92946 -1.38764,4.55939 0,1.48309 0.37444,2.82669 1.12333,4.03078 0.76357,1.18941 1.91626,2.18792 3.45809,2.99554 1.18941,0.63141 3.2672,1.30688 6.23338,2.0264 2.96618,0.70483 4.88245,1.22612 5.74881,1.56385 1.35093,0.51394 2.32007,1.1527 2.90744,1.91627 0.58736,0.74889 0.88104,1.62993 0.88104,2.64313 0,0.99851 -0.30837,1.92361 -0.9251,2.77528 -0.60204,0.83699 -1.52713,1.49778 -2.77528,1.98235 -1.24815,0.48457 -2.68718,0.72686 -4.31711,0.72686 -1.83551,0 -3.48746,-0.31571 -4.95587,-0.94712 -1.46841,-0.6461 -2.55503,-1.48309 -3.25986,-2.51097 -0.69015,-1.04257 -1.13067,-2.37147 -1.32156,-3.98672 l -4.03077,0.35242 c 0.0587,2.15855 0.64609,4.09685 1.76208,5.81488 1.13067,1.70335 2.67984,2.98086 4.6475,3.83254 1.98235,0.85167 4.43458,1.27751 7.35671,1.27751 2.3054,0 4.37585,-0.4185 6.21136,-1.25549 1.85019,-0.85167 3.2672,-2.03374 4.25103,-3.5462 0.98383,-1.52714 1.47575,-3.14973 1.47575,-4.86776 0,-1.73271 -0.44786,-3.25985 -1.34359,-4.58142 -0.89573,-1.33625 -2.28338,-2.43755 -4.16293,-3.30391 -1.2922,-0.58737 -3.67836,-1.27018 -7.15848,-2.04843 -3.46543,-0.79294 -5.6093,-1.56385 -6.43161,-2.31274 -0.83699,-0.74889 -1.25549,-1.70335 -1.25549,-2.86339 0,-1.33625 0.58736,-2.47426 1.76209,-3.41404 1.18941,-0.95446 3.07631,-1.43169 5.6607,-1.43169 2.48161,0 3.96217,0.54422 5.61665,1.56385 1.38051,0.85078 2.05928,2.52361 3.27218,3.59996 1.41065,1.25183 2.85211,2.59667 4.6096,3.28093 0.80779,0.3145 2.5806,0.32161 2.5806,0.32161 m 0,4e-5 h 2.90745 v 13.45793 c 0,2.37881 0.16152,3.94266 0.48457,4.69155 0.32305,0.73421 0.88104,1.32891 1.67398,1.78411 0.79294,0.45521 1.90893,0.68281 3.34796,0.68281 0.88105,0 1.87956,-0.11747 2.99555,-0.35242 l -0.57268,-3.50214 c -0.71951,0.10278 -1.29953,0.15418 -1.74006,0.15418 -0.58736,0 -1.04256,-0.0954 -1.36561,-0.28634 -0.30837,-0.19089 -0.53597,-0.44786 -0.68281,-0.77091 -0.13214,-0.32305 -0.19824,-1.04991 -0.19824,-2.18058 v -13.67819 h 3.98672 v -3.08365 h -3.98672 v -5.87538 l -3.94266,0.0825 v 5.79286 h -2.90745 m 136.88944,6.28461 h 3.96469 v 23.39169 h -3.96469 v -19.82072 l -4.81034,-0.1732 m 0,0 -7.56832,19.99392 h -3.70038 l -8.89853,-23.39169 h 4.18495 l 5.02195,14.00859 c 0.54331,1.51245 1.04256,3.08365 1.49777,4.71358 0.35242,-1.23346 0.84434,-2.71655 1.47575,-4.44927 l 5.19815,-14.2729 h 4.07482 3.52418 z"
   id="text7"
   style="font-size:45.1094px;font-family:Arial;-inkscape-font-specification:'Arial, Normal';fill:#00a900;stroke:#00a900;stroke-width:6;stroke-linecap:round;stroke-linejoin:round;stroke-opacity:0"
   aria-label="Star Pavilion"
   sodipodi:nodetypes="ccsscsccccsccsccccccccscscccccscsscsccccccccsccscccscsccsscscccccccsssccccccsscsscccsscsscscsccsscccccsccsccsccccscccscscscccccccscccscccsccccscscssccssscsscccssssscsssccsccccccccccccccccccccaaaacccccccccccccscscsccscsscssscsaaacccscscsccsccscscccccccc"
   inkscape:label="Star Pavilion" />
    <g
   id="g19"
   inkscape:label="planet">
      <circle
   style="fill:#508ce2;fill-opacity:1;fill-rule:nonzero;stroke:#000000;stroke-width:1;stroke-linecap:round;stroke-linejoin:round;stroke-dasharray:none;stroke-dashoffset:0;stroke-opacity:1"
   id="path11"
   cx="447.80627"
   cy="176.72166"
   r="28.504093" />
      <path
   style="fill:#00a900;fill-opacity:1;fill-rule:nonzero;stroke:#000000;stroke-width:1;stroke-linecap:round;stroke-linejoin:round;stroke-dasharray:none;stroke-dashoffset:0;stroke-opacity:1"
   d="m 434.56178,165.27876 c -1.13022,-0.24891 -2.65448,-0.36899 -3.43823,0.48254 -1.20248,1.30647 -1.25769,3.82232 -0.30126,5.31833 0.46784,0.73178 1.55789,1.03425 2.42309,0.95813 1.35159,-0.11892 2.70607,-1.01052 3.46577,-2.13471 0.55201,-0.81685 0.89647,-2.01251 0.49987,-2.9151 -0.42276,-0.96213 -1.62292,-1.48317 -2.64924,-1.70919 z"
   id="path12"
   sodipodi:nodetypes="aaaaaaa" />
      <path
   style="fill:#00a900;fill-opacity:1;fill-rule:nonzero;stroke:#000000;stroke-width:1;stroke-linecap:round;stroke-linejoin:round;stroke-dasharray:none;stroke-dashoffset:0;stroke-opacity:1"
   d="m 419.48391,179.72142 c 0,0 4.04409,0.53923 5.67732,-0.4273 1.25795,-0.74445 1.15348,-4.44972 2.39286,-3.67476 1.26754,0.79257 -2.00889,2.38086 -2.3074,3.84568 -0.45371,2.22638 1.32446,4.51191 0.94005,6.7513 -0.14658,0.85389 -0.51949,1.76669 -1.19643,2.30741 -0.73666,0.58842 -2.73662,0.71493 -2.73662,0.71493 0,0 -1.33591,-3.12311 -1.80637,-4.75064 -0.45014,-1.55724 -0.96341,-4.76662 -0.96341,-4.76662 z"
   id="path13"
   sodipodi:nodetypes="caaaaacac" />
      <path
   style="fill:#00a900;fill-opacity:1;fill-rule:nonzero;stroke:#000000;stroke-width:1;stroke-linecap:round;stroke-linejoin:round;stroke-dasharray:none;stroke-dashoffset:0;stroke-opacity:1"
   d="m 433.10897,191.25846 -6.40947,-4.4439 z"
   id="path14"
   sodipodi:nodetypes="aaa" />
      <path
   style="fill:#00a900;fill-opacity:1;fill-rule:nonzero;stroke:#000000;stroke-width:1;stroke-linecap:round;stroke-linejoin:round;stroke-dasharray:none;stroke-dashoffset:0;stroke-opacity:1"
   d="m 448.57714,156.56188 c -0.29247,0.89386 1.36694,1.62882 2.30741,1.62373 0.87754,-0.005 2.39783,-0.70054 2.13649,-1.53827 -0.44123,-1.41435 -3.98317,-1.49358 -4.4439,-0.0855 z"
   id="path15"
   sodipodi:nodetypes="aaaa" />
      <path
   style="fill:#00a900;fill-opacity:1;fill-rule:nonzero;stroke:#000000;stroke-width:1;stroke-linecap:round;stroke-linejoin:round;stroke-dasharray:none;stroke-dashoffset:0;stroke-opacity:1"
   d="m 461.05615,151.5574 c 0,0 -2.28518,3.34466 -2.82208,5.26086 -0.56957,2.0328 0.33467,4.32426 -0.34184,6.32401 -0.24307,0.71851 -1.49199,1.15128 -1.28189,1.88011 0.33569,1.16451 2.12241,1.39416 3.33292,1.45281 1.19672,0.058 2.28454,-1.49816 3.41838,-1.11097 1.43562,0.49025 1.10742,3.33553 2.56379,3.76022 1.66618,0.48587 3.35161,-1.07353 4.78573,-2.05103 1.01185,-0.68968 2.58136,-2.61384 2.58136,-2.61384 0,0 -2.58511,-4.95641 -4.48569,-6.95656 -2.39408,-2.5195 -7.75068,-5.94561 -7.75068,-5.94561 z"
   id="path16"
   sodipodi:nodetypes="caaaaaaacsc" />
      <path
   style="fill:#00a900;fill-opacity:1;fill-rule:nonzero;stroke:#000000;stroke-width:1;stroke-linecap:round;stroke-linejoin:round;stroke-dasharray:none;stroke-dashoffset:0;stroke-opacity:1"
   d="m 454.98661,169.03898 c -0.67335,-0.0515 -1.59269,0.29564 -1.79465,0.94005 -0.221,0.70518 0.30679,1.79362 1.02551,1.96557 0.9533,0.22807 2.38563,-0.72902 2.39287,-1.70919 0.005,-0.67229 -0.95338,-1.14521 -1.62373,-1.19643 z"
   id="path17"
   sodipodi:nodetypes="aaaaa" />
      <path
   style="fill:#00a900;fill-opacity:1;fill-rule:nonzero;stroke:#000000;stroke-width:1;stroke-linecap:round;stroke-linejoin:round;stroke-dasharray:none;stroke-dashoffset:0;stroke-opacity:1"
   d="m 459.60142,171.85914 c -0.62604,0.47839 -0.25665,2.13771 0.51276,2.30741 0.59533,0.13131 1.24207,-0.85744 1.11097,-1.45281 -0.13153,-0.59732 -1.13774,-1.22596 -1.62373,-0.8546 z"
   id="path18"
   sodipodi:nodetypes="aaaa" />
      <path
   style="fill:#00a900;fill-opacity:1;fill-rule:nonzero;stroke:#000000;stroke-width:1;stroke-linecap:round;stroke-linejoin:round;stroke-dasharray:none;stroke-dashoffset:0;stroke-opacity:1"
   d="m 466.09635,174.16655 c 0.13888,0.46741 1.15905,0.56011 1.45281,0.17092 0.2231,-0.29558 -0.0676,-0.93727 -0.4273,-1.02552 -0.43215,-0.10604 -1.15225,0.42806 -1.02551,0.8546 z"
   id="path19"
   sodipodi:nodetypes="aaaa" />
    </g>
    <g
   id="g20"
   inkscape:label="center text">
      <g
   id="g1"
   inkscape:label="星球阁">
        <path
   d="m 277.30346,230.20889 0.1598,0.85223 c 1.59792,7.03087 4.19011,14.39908 7.77656,22.10463 5.2554,-5.14887 10.24448,-11.38078 14.96723,-18.69572 l 6.97761,5.21989 c -5.78804,7.35045 -12.00219,13.93745 -18.64246,19.761 2.41807,4.17387 10.39426,14.3609 15.71254,21.45567 7.64227,10.19505 23.84932,21.9397 29.00377,26.29261 l -0.95987,6.17878 c 0,0 -15.31537,-8.43201 -21.41295,-14.46393 -14.1758,-14.02317 -27.22603,-31.01189 -33.79528,-49.05068 v 46.49961 c 0,3.33789 -0.83447,5.68151 -2.50342,7.03087 -1.31385,1.06528 -3.28462,1.59792 -5.91232,1.59792 -3.23136,0 -7.49249,-0.30183 -12.7834,-0.90549 l -1.59792,-8.3092 c 4.33215,0.74569 8.07839,1.11854 11.23873,1.11854 1.66895,0 2.66321,-0.26632 2.9828,-0.79896 0.24857,-0.35509 0.37285,-1.1363 0.37285,-2.34362 v -63.54415 h -27.27125 v -7.61677 h 27.27125 v -21.14587 h 8.20268 v 21.14587 h 30.89321 v 7.61677 z m -39.36221,53.90333 c 9.0194,-4.86479 31.4431,-29.69412 31.4431,-29.69412 l -0.14508,9.70508 c 0,0 -17.94647,21.83554 -26.7173,27.44603 z M 340.33889,244.7417 c 9.01939,-7.10189 21.73177,-23.22318 21.73177,-23.22318 h 8.52227 c -1.42038,2.27261 -7.38287,8.51983 -7.38287,8.51983 l 29.86485,-1.04142 0.26828,5.63303 c -4.68725,5.82355 -9.83222,11.1308 -16.50799,15.74703 6.90347,4.14098 17.36077,9.31821 26.5359,8.43437 -1.84649,2.84075 -2.55148,4.61115 -3.54574,6.88376 -12.14423,-2.20159 -20.4718,-6.31508 -28.70999,-10.71825 -1.06529,0.63917 -0.39341,-0.23956 -2.09786,0.68369 -4.75826,2.6277 -12.87692,8.47437 -27.93293,11.5992 -1.1363,-2.69871 -2.02143,-4.20701 -3.37079,-6.62166 11.6471,-1.91751 17.54727,-4.79096 24.58614,-10.28028 -4.11909,-3.05381 -5.95259,-4.59818 -9.07742,-9.00135 -3.47993,3.55094 -3.86423,5.08968 -7.77027,8.28553 -1.98853,-2.20159 -3.69298,-3.83502 -5.11335,-4.9003 z m 17.59968,-27.53786 v -7.8831 l 59.10371,0.26209 v 82.45292 c 0,10.1557 -1.72046,12.26315 -10.5268,12.26315 -4.9003,0 -3.13594,-0.0355 -8.74643,-0.10653 -0.42611,-3.12483 -0.99426,-6.07212 -1.70445,-8.84185 6.53373,0.35509 4.73386,0.53264 8.6399,0.53264 4.47419,0 4.02858,0.20066 4.02858,-5.33881 v -73.07842 z m -33.24026,2.0226 h 8.30921 l -0.31616,87.99383 -7.41497,0.17473 z m 58.64442,16.36454 -24.61495,0.43682 c 3.55094,4.61623 6.05781,7.33466 11.45524,10.60153 5.96559,-3.33789 9.04061,-6.49314 13.15971,-11.03835 z m -163.19171,41.65017 0.85223,-0.31959 v -27.4843 h -13.5291 v -7.51025 h 13.5291 v -24.02214 h -14.48786 v -7.7233 h 36.43269 v 7.7233 H 229.0994 v 24.02214 h 11.34526 v 7.51025 H 229.0994 v 24.23519 c 4.47419,-1.84649 9.37449,-4.06583 14.70091,-6.65802 l 1.11854,7.40372 c -12.99645,6.64027 -26.47759,9.60288 -38.79936,14.07707 l -3.40309,1.13419 m 0,0 -30.5353,11.4904 H 99.225086 v -7.19066 h 46.233294 v -12.46381 h -32.59767 v -6.65802 h 32.59767 v -11.34527 h -30.78669 c -2.69871,3.94155 -9.56857,16.48484 -12.51586,19.46763 l -6.088926,-6.13169 c 6.498226,-5.61049 12.660986,-20.55093 16.211936,-29.74788 l 10.02644,1.88566 c -1.17181,2.6277 -1.91656,4.81445 -3.37245,7.54868 h 26.52555 v -11.77138 h 8.62879 v 11.77138 h 38.50999 v 6.9776 h -38.50999 v 11.34527 h 33.71621 v 6.65802 h -33.71621 v 12.46381 h 18.0307 l 48.03315,-16.688"
   id="text19"
   style="font-size:109.085px;font-family:'BIZ UDPGothic';-inkscape-font-specification:'BIZ UDPGothic, Normal';display:inline;fill:#00a900;stroke:#00a900;stroke-width:2.41822;stroke-linecap:round;stroke-linejoin:round;stroke-opacity:0"
   inkscape:label="星球阁"
   aria-label="星球阁"
   sodipodi:nodetypes="ccccccsccaccccccccccccccccccccccsccccccccccccccccccccccccccccccccccccccccccccccccccccccccccccccssccccccccccccccccccccccccc"
   transform="scale(0.9884215,1.0117141)" />
        <ellipse
   style="fill:#00a900;fill-opacity:0;fill-rule:nonzero;stroke:#00a900;stroke-width:7.20382;stroke-linecap:round;stroke-linejoin:round;stroke-dasharray:none;stroke-dashoffset:0;stroke-opacity:1"
   id="path20"
   cx="147.12477"
   cy="220.125"
   rx="27.21509"
   ry="27.215326" />
        <path
   style="fill:#00a900;fill-opacity:0;fill-rule:nonzero;stroke:#00a900;stroke-width:7;stroke-linecap:round;stroke-linejoin:round;stroke-dasharray:none;stroke-dashoffset:0;stroke-opacity:1"
   d="m 120.77644,219.375 h 51.57212"
   id="path21" />
        <path
   style="fill:#00a900;fill-opacity:0;fill-rule:nonzero;stroke:#00a900;stroke-width:7;stroke-linecap:square;stroke-linejoin:miter;stroke-dasharray:none;stroke-dashoffset:0;stroke-opacity:1"
   d="m 307.41467,219.37988 19.09189,-23.95324 18.64994,24.74873"
   id="path22"
   sodipodi:nodetypes="ccc" />
        <circle
   style="fill:#f9c509;fill-opacity:1;fill-rule:nonzero;stroke:#f9c509;stroke-width:0;stroke-linecap:square;stroke-linejoin:miter;stroke-dasharray:none;stroke-dashoffset:0;stroke-opacity:1"
   id="path23"
   cx="251.34424"
   cy="251.18799"
   r="5.5" />
      </g>
      <g
   id="g24"
   inkscape:label="jupiter">
        <path
   style="display:inline;fill:#ffa719;fill-opacity:1;fill-rule:nonzero;stroke:#000000;stroke-width:0;stroke-linecap:square;stroke-linejoin:miter;stroke-dasharray:none;stroke-dashoffset:0;stroke-opacity:1"
   d="m 281.4506,211.15976 c 0,0 2.55596,-0.0536 3.7344,-0.48613 1.37519,-0.50472 2.58773,-1.42191 3.69022,-2.38649 1.35648,-1.1868 3.51344,-4.11006 3.51344,-4.11006 0,0 -3.11033,-1.71864 -7.1641,0.77477 -3.33619,2.05204 -3.77396,6.20791 -3.77396,6.20791 z"
   id="path25"
   sodipodi:nodetypes="caaccc" />
        <path
   style="fill:#fe8117;fill-opacity:1;fill-rule:nonzero;stroke:#000000;stroke-width:0;stroke-linecap:square;stroke-linejoin:miter;stroke-dasharray:none;stroke-dashoffset:0;stroke-opacity:1"
   d="m 281.75996,214.03238 c 1.62756,-0.1844 3.29349,-0.37285 4.78963,-1.08848 2.60369,-1.16624 4.9623,-2.88884 6.87421,-5.00563 0.64937,-0.72602 1.25826,-1.50866 1.57901,-2.44103 -0.0708,-0.14586 -0.36043,-0.21265 -0.51712,-0.32747 -0.67904,-0.36845 -1.35808,-0.73689 -2.03712,-1.10534 -0.93073,1.17744 -1.95898,2.27081 -3.04551,3.30493 -1.29516,1.25454 -2.63244,2.56863 -4.32927,3.25755 -1.16579,0.36094 -2.40031,0.41721 -3.61242,0.43835 -0.0464,1.00348 0.0737,1.9898 0.29859,2.96712 z"
   id="path26" />
        <path
   style="fill:#f9c509;fill-opacity:1;fill-rule:nonzero;stroke:#000000;stroke-width:1;stroke-linecap:square;stroke-linejoin:miter;stroke-dasharray:none;stroke-dashoffset:0;stroke-opacity:0"
   d="m 283.26256,216.9492 c 2.40807,-0.70699 4.88559,-1.38417 6.99237,-2.79948 1.83163,-1.17977 3.50549,-2.63673 4.76145,-4.42874 0.53764,-0.72036 1.0542,-1.45642 1.55242,-2.20455 -0.54819,-0.63988 -1.09639,-1.27975 -1.64459,-1.91962 -0.41117,1.29932 -1.41126,2.27683 -2.34072,3.2248 -2.22411,2.0994 -4.85589,3.86966 -7.83044,4.68133 -0.9907,0.2165 -2.00123,0.32596 -3.01032,0.4143 0.21475,0.55582 0.35584,1.1483 0.61738,1.68084 0.30081,0.45037 0.60163,0.90075 0.90245,1.35112 z"
   id="path27" />
        <path
   style="display:inline;fill:#fe8117;fill-opacity:1;fill-rule:nonzero;stroke:#fe8117;stroke-width:1;stroke-linecap:square;stroke-linejoin:miter;stroke-dasharray:none;stroke-dashoffset:0;stroke-opacity:0"
   d="m 285.2071,218.82745 c 2.41352,-1.00075 4.86564,-1.96867 7.08495,-3.36336 1.87652,-1.24155 3.62093,-2.73848 4.89309,-4.61078 0.28187,-0.30552 0.48466,-0.63122 0.29274,-1.03558 -0.0898,-0.44055 -0.1608,-0.88783 -0.41673,-1.26858 -0.16904,-0.32599 -0.33808,-0.65197 -0.50712,-0.97796 -1.27727,1.83574 -2.55433,3.73275 -4.35583,5.10256 -1.54442,1.24843 -3.2439,2.33285 -5.13746,2.96614 -1.29098,0.47605 -2.60159,0.89739 -3.91987,1.29091 0.68874,0.63222 1.37749,1.26443 2.06623,1.89665 z"
   id="path28" />
        <path
   style="display:inline;fill:#ffa719;fill-opacity:1;fill-rule:nonzero;stroke:#fe8117;stroke-width:0;stroke-linecap:square;stroke-linejoin:miter;stroke-dasharray:none;stroke-dashoffset:0;stroke-opacity:0"
   d="m 285.28125,218.76563 c 2.23579,-0.91362 4.48249,-1.84499 6.54897,-3.10658 1.62632,-1.08648 2.9863,-2.51278 4.35421,-3.89772 0.49815,-0.51747 0.98999,-1.0411 1.47182,-1.57383 0.21193,1.38377 0.41054,2.81229 0.14455,4.20198 -0.47975,1.68435 -1.81835,2.96036 -3.218,3.93063 -1.74033,1.19534 -3.75295,2.26701 -5.92655,2.16427 -1.09833,-0.13894 -2.03864,-0.80184 -2.93926,-1.3995 -0.14717,-0.10375 -0.29299,-0.20948 -0.43574,-0.31925 z"
   id="path29" />
        <ellipse
   style="fill:#fa5710;fill-opacity:1;fill-rule:nonzero;stroke:#fe8117;stroke-width:0;stroke-linecap:square;stroke-linejoin:miter;stroke-dasharray:none;stroke-dashoffset:0;stroke-opacity:0"
   id="path30"
   cx="138.87794"
   cy="335.58179"
   rx="2.171875"
   ry="1.359375"
   transform="rotate(-31.528301)"
   inkscape:label="Great Red Spot" />
        <circle
   style="display:inline;fill:#f9c509;fill-opacity:0;fill-rule:nonzero;stroke:#000000;stroke-width:0.9;stroke-linecap:square;stroke-linejoin:miter;stroke-dasharray:none;stroke-dashoffset:0;stroke-opacity:1"
   id="path24"
   cx="289.59375"
   cy="211.8125"
   r="8.5500002" />
      </g>
      <g
   id="g35"
   inkscape:label="Saturn"
   transform="matrix(1.4777446,0,0,1.5126739,-60.417198,-36.142023)">
        <circle
   style="display:inline;fill:#ff8818;fill-opacity:1;fill-rule:nonzero;stroke:#000000;stroke-width:0.9;stroke-linecap:square;stroke-linejoin:miter;stroke-dasharray:none;stroke-dashoffset:0;stroke-opacity:1"
   id="circle35"
   cx="289.59375"
   cy="211.8125"
   r="8.5500002" />
        <path
   id="path35"
   style="fill:#ff8818;fill-opacity:0;stroke:#f0d55e;stroke-width:0.746042;stroke-linecap:round;stroke-dasharray:none;paint-order:normal"
   inkscape:label="ring"
   transform="matrix(0.47235513,-0.47338559,0.5407728,0.3974195,40.884736,23.892805)"
   d="m 5.0337337,455.7818 c 5.5869133,1.80645 8.3057113,4.77644 8.3057153,8.4584 6e-6,5.65923 -8.7911556,10.24694 -19.6356025,10.24694 -10.8444465,0 -19.6356085,-4.58771 -19.6356025,-10.24694 5e-6,-4.73885 4.941397,-8.83141 13.313708,-10.00307"
   sodipodi:nodetypes="csssc" />
      </g>
    </g>
  </g>
</svg>
